<?xml version="1.0" encoding="UTF-8"?>
<svg version="1.1" xmlns="http://www.w3.org/2000/svg" width="1282" height="848">
<path d="M0 0 C423.06 0 846.12 0 1282 0 C1282 279.84 1282 559.68 1282 848 C858.94 848 435.88 848 0 848 C0 568.16 0 288.32 0 0 Z " fill="#3457A4" transform="translate(0,0)"/>
<path d="M0 0 C7.24618754 5.82845519 13.18114181 12.93772685 14.875 22.3125 C15.27810248 26.52324739 15.39830924 30.70891004 15.4375 34.9375 C15.45224365 35.99831787 15.4669873 37.05913574 15.48217773 38.15209961 C15.34675177 48.57178944 12.26278843 57.75400936 4.90234375 65.34765625 C-1.75926507 71.6436193 -6.88202075 74.38535764 -16.0625 74.6875 C-26.52119008 74.35861037 -30.85547691 71.5483327 -39.125 64.3125 C-39.455 75.5325 -39.785 86.7525 -40.125 98.3125 C-46.725 98.3125 -53.325 98.3125 -60.125 98.3125 C-60.125 64.9825 -60.125 31.6525 -60.125 -2.6875 C-53.855 -2.6875 -47.585 -2.6875 -41.125 -2.6875 C-40.795 -0.0475 -40.465 2.5925 -40.125 5.3125 C-39.59390625 4.83039063 -39.0628125 4.34828125 -38.515625 3.8515625 C-37.80921875 3.21992188 -37.1028125 2.58828125 -36.375 1.9375 C-35.67890625 1.31101562 -34.9828125 0.68453125 -34.265625 0.0390625 C-24.41046014 -7.90981134 -10.37734974 -5.60376886 0 0 Z " fill="#FDFDFE" transform="translate(999.125,392.6875)"/>
<path d="M0 0 C7.48756069 5.99004855 13.08109814 13.78297047 14.9375 23.3125 C14.9375 24.9625 14.9375 26.6125 14.9375 28.3125 C7.6775 28.3125 0.4175 28.3125 -7.0625 28.3125 C-7.743125 26.765625 -8.42375 25.21875 -9.125 23.625 C-12.5158046 16.83378512 -16.96687932 13.74077908 -24.0625 11.3125 C-32.35045024 10.19884332 -39.26383414 11.32276488 -46.0625 16.3125 C-48.56905899 18.74883213 -50.33445127 21.28301457 -52.0625 24.3125 C-52.475 24.98410156 -52.8875 25.65570313 -53.3125 26.34765625 C-58.52557299 36.61089369 -57.43524914 50.8941885 -54.3125 61.6875 C-51.30332722 69.85823998 -47.77780956 74.33602628 -40.0625 78.3125 C-33.92167997 80.35944001 -25.58817479 80.57691611 -19.4375 78.37109375 C-17.43617364 77.16195907 -15.77258508 75.90265703 -14.0625 74.3125 C-13.32 73.631875 -12.5775 72.95125 -11.8125 72.25 C-9.01734406 67.5581311 -7.66613427 62.52431136 -6.0625 57.3125 C1.1975 57.3125 8.4575 57.3125 15.9375 57.3125 C14.68656439 68.57092053 12.54899494 75.25492919 5.9375 84.3125 C5.36 85.199375 4.7825 86.08625 4.1875 87 C0.61516134 90.67157029 -3.54369755 92.95626729 -8.0625 95.3125 C-8.84109375 95.73144531 -9.6196875 96.15039062 -10.421875 96.58203125 C-21.0036106 101.35055223 -35.68374304 101.07270308 -46.6875 97.75 C-59.51755411 92.52294092 -69.19479261 84.46082848 -75.03515625 71.796875 C-81.50488079 56.15145747 -82.57418355 38.9041598 -76.61328125 22.91015625 C-70.80339663 9.43180931 -62.27644964 0.6258315 -49.0625 -5.6875 C-32.7980013 -11.85754441 -14.37428997 -9.69428858 0 0 Z " fill="#FCFCFD" transform="translate(529.0625,367.6875)"/>
<path d="M0 0 C4.79942855 6.8563265 4.81989065 14.05472168 4.84375 22.1171875 C4.85932953 23.26802826 4.87490906 24.41886902 4.89096069 25.60458374 C4.93826691 29.26242426 4.96616871 32.92007654 4.9921875 36.578125 C5.02877067 40.24318079 5.06946533 43.90813216 5.11483765 47.5730896 C5.14189629 49.84794995 5.16331939 52.12288621 5.17837524 54.39785767 C5.18863739 55.4326828 5.19889954 56.46750793 5.20947266 57.53369141 C5.21596832 58.4377774 5.22246399 59.3418634 5.22915649 60.27334595 C5.37926002 63.18750486 5.88746761 66.07480569 6.3671875 68.953125 C-0.5628125 68.953125 -7.4928125 68.953125 -14.6328125 68.953125 C-15.2928125 66.973125 -15.9528125 64.993125 -16.6328125 62.953125 C-17.28507813 63.36304688 -17.93734375 63.77296875 -18.609375 64.1953125 C-19.48335937 64.73414063 -20.35734375 65.27296875 -21.2578125 65.828125 C-22.11632812 66.36179687 -22.97484375 66.89546875 -23.859375 67.4453125 C-32.15819735 71.95706662 -41.41405758 72.25281188 -50.5859375 70.3359375 C-56.84159396 68.16756578 -61.01557001 64.47147505 -64.6328125 58.953125 C-67.4166047 53.16134257 -67.75054418 46.86183936 -65.98046875 40.671875 C-63.41651004 34.94973539 -59.34229929 30.42127381 -53.44482422 28.0871582 C-46.3928494 25.99064468 -39.43013076 24.97706921 -32.13671875 24.13671875 C-27.09121002 23.49590231 -23.02289411 22.7287895 -18.6328125 19.953125 C-17.06851002 16.82452005 -17.27653966 14.39709575 -17.6328125 10.953125 C-20.300581 8.18199278 -21.96485422 7.05811349 -25.7890625 6.45703125 C-26.8925 6.47636719 -27.9959375 6.49570312 -29.1328125 6.515625 C-30.78796875 6.51755859 -30.78796875 6.51755859 -32.4765625 6.51953125 C-36.07529947 7.0139122 -37.84614454 7.61976775 -40.6328125 9.953125 C-41.6228125 12.263125 -42.6128125 14.573125 -43.6328125 16.953125 C-50.2328125 16.953125 -56.8328125 16.953125 -63.6328125 16.953125 C-62.5747007 7.43011881 -61.62519899 3.95235467 -54.43359375 -1.80859375 C-39.80904386 -11.53474368 -13.60935721 -11.70545749 0 0 Z " fill="#FAFBFD" transform="translate(621.6328125,396.046875)"/>
<path d="M0 0 C0.73734375 0.4021875 1.4746875 0.804375 2.234375 1.21875 C12.47802103 7.4061872 17.83655795 16.52651863 20.75 27.9375 C21.13144468 32.61019736 21 37.31175932 21 42 C3.18 42 -14.64 42 -33 42 C-30.90890394 51.95800687 -30.90890394 51.95800687 -25 58 C-20.32045913 60.33977044 -14.07517523 59.50529644 -9 59 C-4.42321753 57.24126609 -1.7086713 55.06300695 1 51 C2.87939453 50.65942383 2.87939453 50.65942383 5.1328125 50.70703125 C5.93847656 50.71669922 6.74414062 50.72636719 7.57421875 50.73632812 C8.41597656 50.76146484 9.25773438 50.78660156 10.125 50.8125 C11.39923828 50.83280273 11.39923828 50.83280273 12.69921875 50.85351562 C14.79974837 50.88891781 16.89995293 50.94272599 19 51 C15.66947871 61.09499619 11.4582041 67.48107626 1.875 72.4375 C-7.65308448 76.9788078 -18.73850275 77.79930654 -28.8125 74.375 C-40.18960231 69.58992462 -46.91892745 63.23402292 -51.875 51.9375 C-56.05656204 40.23183279 -54.95817907 28.29526002 -50 17 C-46.03052253 9.57522607 -41.24018401 5.15328385 -34 1 C-33.01 0.34 -32.02 -0.32 -31 -1 C-21.11236771 -3.91766199 -9.31273188 -5.16504457 0 0 Z " fill="#F9FAFC" transform="translate(906,391)"/>
<path d="M0 0 C9.09183051 7.27346441 14.00918331 15.82899427 15.8125 27.25 C15.8125 31.21 15.8125 35.17 15.8125 39.25 C-2.0075 39.25 -19.8275 39.25 -38.1875 39.25 C-36.04291883 47.99735389 -36.04291883 47.99735389 -31.1875 54.25 C-25.45256592 57.01018086 -19.23527652 57.20067045 -13.05859375 55.75 C-9.92041212 54.5570843 -8.35462719 53.51869843 -6.57421875 50.65625 C-3.90415637 47.96433768 -3.4517136 47.88973334 0.140625 47.76171875 C1.78196243 47.79481023 3.42294165 47.85424118 5.0625 47.9375 C5.90296875 47.96005859 6.7434375 47.98261719 7.609375 48.00585938 C9.67784964 48.06462286 11.74540488 48.15430115 13.8125 48.25 C11.53989169 57.00220609 7.52963485 62.9859228 -0.0625 68.0625 C-10.21629784 73.79823313 -21.10591292 75.10663026 -32.5 72.125 C-43.12341786 68.38068059 -51.05298868 61.05024218 -56.125 51.0625 C-59.91890229 41.20086656 -60.23013761 27.41904538 -56.5625 17.4375 C-55.44921875 15.24609375 -55.44921875 15.24609375 -54.1875 13.25 C-53.74019531 12.53972656 -53.29289063 11.82945312 -52.83203125 11.09765625 C-40.17183944 -7.12894697 -18.94153579 -10.39927455 0 0 Z " fill="#FAFBFD" transform="translate(750.1875,393.75)"/>
<path d="M0 0 C3.48993831 2.62411392 6.2611128 5.53385298 8.046875 9.5390625 C8.541875 13.9940625 8.541875 13.9940625 9.046875 18.5390625 C2.776875 18.5390625 -3.493125 18.5390625 -9.953125 18.5390625 C-10.943125 16.5590625 -11.933125 14.5790625 -12.953125 12.5390625 C-15.28436829 10.15267152 -16.46312144 9.59567914 -19.79296875 9.2109375 C-21.32630859 9.24960937 -21.32630859 9.24960937 -22.890625 9.2890625 C-23.91027344 9.30453125 -24.92992187 9.32 -25.98046875 9.3359375 C-28.72522941 9.52349013 -31.27451475 9.9273725 -33.953125 10.5390625 C-33.953125 13.1790625 -33.953125 15.8190625 -33.953125 18.5390625 C-28.35590752 22.15854557 -23.25672365 23.59609665 -16.765625 24.9140625 C-6.39004976 27.20872158 3.5334345 29.48697592 10.046875 38.5390625 C12.59506657 43.63544565 11.78294562 51.59009168 10.43359375 56.99609375 C7.17386141 64.2766413 1.01922999 69.07280911 -6.265625 71.9765625 C-19.49314061 75.84925718 -34.15097757 74.80196045 -46.28125 68.2890625 C-51.84845845 64.66006736 -54.82025439 59.77290322 -56.953125 53.5390625 C-57.283125 51.2290625 -57.613125 48.9190625 -57.953125 46.5390625 C-51.353125 46.5390625 -44.753125 46.5390625 -37.953125 46.5390625 C-36.963125 49.1790625 -35.973125 51.8190625 -34.953125 54.5390625 C-30.07394744 58.6050438 -25.83925928 59.18611568 -19.55078125 58.91796875 C-15.72933605 58.36055494 -13.64635017 57.30316202 -10.953125 54.5390625 C-9.71559192 51.04694503 -9.71559192 51.04694503 -9.953125 47.5390625 C-14.25716146 42.10966998 -22.2432598 41.15846384 -28.66821289 39.80273438 C-39.45033527 37.52080371 -48.51235516 35.20021725 -54.953125 25.5390625 C-57.1806513 21.0840099 -56.63237579 14.9409915 -55.3046875 10.24609375 C-52.15963873 3.29741762 -46.98397457 -0.83886166 -40.078125 -3.8359375 C-27.68510975 -7.93845289 -11.1927653 -6.78710237 0 0 Z " fill="#FAFBFD" transform="translate(831.953125,393.4609375)"/>
<path d="M0 0 C6.93 0 13.86 0 21 0 C21 7.26 21 14.52 21 22 C25.95 22 30.9 22 36 22 C36 26.62 36 31.24 36 36 C31.05 36 26.1 36 21 36 C21.09337866 41.94510801 21.19943682 47.88980119 21.31738281 53.83447266 C21.35572521 55.85784666 21.39056871 57.88129006 21.421875 59.90478516 C21.46741169 62.80917203 21.52542409 65.71307894 21.5859375 68.6171875 C21.59748871 69.52556366 21.60903992 70.43393982 21.62094116 71.36984253 C21.64081085 72.21056305 21.66068054 73.05128357 21.68115234 73.91748047 C21.69447601 74.65916473 21.70779968 75.400849 21.7215271 76.16500854 C21.85199729 78.2473364 21.85199729 78.2473364 24 80 C27.98938913 80.58569979 31.97186456 80.74288497 36 81 C36 86.28 36 91.56 36 97 C28.16868876 99.61043708 16.37877989 99.15328854 8.73046875 95.97265625 C4.68161804 93.6968914 2.50555994 91.35210205 0.88330078 87.01342773 C-0.42765951 82.07266669 -0.24814938 77.11247127 -0.1953125 72.03515625 C-0.1924826 71.00184677 -0.18965271 69.96853729 -0.18673706 68.90391541 C-0.17559647 65.62332278 -0.15050304 62.34300927 -0.125 59.0625 C-0.1149623 56.83008208 -0.10583783 54.59765986 -0.09765625 52.36523438 C-0.07567716 46.9100497 -0.04118949 41.45507208 0 36 C-3.96 36 -7.92 36 -12 36 C-12 31.38 -12 26.76 -12 22 C-8.04 22 -4.08 22 0 22 C0 14.74 0 7.48 0 0 Z " fill="#FBFBFD" transform="translate(1032,368)"/>
<path d="M0 0 C5.21615456 3.82597214 8.3859957 8.97133903 9.71484375 15.2578125 C10.63711246 24.24430886 9.98915939 30.89090494 4.32421875 38.00390625 C0.4110751 42.29806652 -3.05737284 43.95040456 -8.91015625 44.5078125 C-28.72509193 45.33343482 -45.88821631 32.26429782 -61.28515625 21.2578125 C-57.07500683 16.57509528 -52.30355167 13.52302322 -46.91015625 10.3203125 C-46.02908203 9.79397217 -45.14800781 9.26763184 -44.24023438 8.7253418 C-31.73102639 1.41207475 -14.15207653 -8.27708362 0 0 Z " fill="#FCFDFE" transform="translate(393.28515625,405.7421875)"/>
<path d="M0 0 C8.89503788 4.59325685 17.09333517 10.30775833 25.3125 16 C24.16777444 19.43417667 23.55807239 19.78555916 20.62109375 21.671875 C19.84870361 22.1683252 19.07631348 22.66477539 18.28051758 23.17626953 C17.44544678 23.69560059 16.61037598 24.21493164 15.75 24.75 C14.89752686 25.28351074 14.04505371 25.81702148 13.16674805 26.36669922 C0.03383725 34.41263565 -14.83429607 42.08819084 -30.6875 40 C-35.78563227 37.99716232 -39.86505844 34.70406926 -42.6875 30 C-45.68031574 22.62808591 -47.33832777 15.57782736 -44.5859375 7.9453125 C-41.62325387 1.46543225 -38.96354925 -2.56593532 -32.6875 -6 C-21.54936338 -9.71271221 -10.05914797 -4.75629077 0 0 Z " fill="#FCFDFE" transform="translate(255.6875,408)"/>
<path d="M0 0 C4.78817309 2.93468673 8.52191563 7.07355938 10.30078125 12.41015625 C11.95008847 31.20144339 2.71579153 46.48555389 -7.69921875 61.41015625 C-8.21097656 62.17199219 -8.72273438 62.93382812 -9.25 63.71875 C-10.34372215 65.32223056 -11.51241536 66.87429304 -12.69921875 68.41015625 C-13.35921875 68.41015625 -14.01921875 68.41015625 -14.69921875 68.41015625 C-15.82495117 66.97998047 -15.82495117 66.97998047 -17.0546875 64.96484375 C-17.50900146 64.22443848 -17.96331543 63.4840332 -18.43139648 62.72119141 C-18.91165283 61.9172998 -19.39190918 61.1134082 -19.88671875 60.28515625 C-20.37922119 59.46708496 -20.87172363 58.64901367 -21.37915039 57.80615234 C-39.11344721 28.02553477 -39.11344721 28.02553477 -36.69921875 14.41015625 C-34.83677835 8.10219229 -32.20756264 4.29849118 -26.57421875 0.84765625 C-17.86629275 -3.82392107 -9.0707847 -4.03628219 0 0 Z " fill="#FCFDFE" transform="translate(320.69921875,331.58984375)"/>
<path d="M0 0 C-1.14687197 18.06323359 -6.12911472 40.23981876 -20 53 C-24.79482131 56.26492289 -29.87155256 57.75542211 -35.67578125 57.44140625 C-44.12733914 55.83632047 -50.19893434 50.94820891 -55 44 C-58.40862038 37.95244771 -58.87188664 32.60732256 -57.6015625 25.89453125 C-55.48679883 18.79496751 -50.33126103 14.9048553 -44.08984375 11.3359375 C-35.22915063 6.78797112 -26.70241154 3.70366976 -16.9375 1.8125 C-16.07833984 1.63525391 -15.21917969 1.45800781 -14.33398438 1.27539062 C-9.45995489 0.31101046 -4.96680076 -0.19543721 0 0 Z " fill="#FDFDFE" transform="translate(288,444)"/>
<path d="M0 0 C6.38908411 2.95732358 11.15243778 5.97814516 15.03125 11.8984375 C15.959375 13.22875 15.959375 13.22875 16.90625 14.5859375 C19.02406018 20.82171192 19.21165934 27.96504472 16.71875 34.1484375 C9.92689312 45.42151954 -5.53837509 50.47999711 -17.65527344 53.58740234 C-33.39298007 57.23189439 -33.39298007 57.23189439 -39.96875 56.8984375 C-37.45489626 38.34028198 -33.68063635 17.02472954 -19.46875 3.5234375 C-12.79546035 -0.81420077 -7.66693319 -2.84483574 0 0 Z " fill="#FCFDFE" transform="translate(364.96875,351.1015625)"/>
<path d="M0 0 C11.84377068 14.35689583 23.86931808 33.10156595 23.28125 52.23828125 C22.6706041 58.23448479 20.22521321 62.63730455 15.78125 66.7109375 C9.20849916 71.46753351 0.83840368 72.08186301 -7 71 C-13.54736946 68.87210492 -18.23988828 65.75767107 -22 60 C-25.34108487 52.99963171 -24.70585545 45.56449379 -22.5 38.3125 C-17.74722795 25.34587798 -9.85976784 9.85976784 0 0 Z " fill="#FDFDFE" transform="translate(306,451)"/>
<path d="M0 0 C18.99024909 1.78687028 42.21966463 6.61674501 55 22 C58.02673602 27.2558862 58.86758535 31.0508433 58 37 C55.70891725 44.89542365 52.69489553 50.60459446 45.4375 54.75 C39.00509362 58.17772414 33.24696676 58.94845944 26 58 C22.72944576 56.53014892 20.4694086 54.57508149 18 52 C17.20335937 51.18208984 17.20335937 51.18208984 16.390625 50.34765625 C5.28610497 37.26836333 2.13067508 16.37255591 0 0 Z " fill="#FDFDFE" transform="translate(324,444)"/>
<path d="M0 0 C15.16347118 10.7592661 18.2687186 30.98193787 21.65600586 48.01269531 C22.01740757 50.51537047 22.06492401 52.89680837 22.00390625 55.421875 C3.32808485 53.63155912 -19.0307088 49.28027759 -31.99609375 34.421875 C-35.61579169 29.67102146 -35.62349349 24.54341964 -35.46484375 18.74609375 C-34.56323517 12.35218621 -31.67904244 7.72222852 -26.8046875 3.54296875 C-18.49759034 -2.29027206 -9.30167847 -5.31524484 0 0 Z " fill="#FDFDFE" transform="translate(266.99609375,351.578125)"/>
<path d="M0 0 C1 1 1 1 1.11352539 2.85766602 C1.10828857 3.64842529 1.10305176 4.43918457 1.09765625 5.25390625 C1.09443359 6.10791016 1.09121094 6.96191406 1.08789062 7.84179688 C1.07532227 9.18854492 1.07532227 9.18854492 1.0625 10.5625 C1.05798828 11.46419922 1.05347656 12.36589844 1.04882812 13.29492188 C1.03700225 15.53001314 1.0205222 17.76497437 1 20 C-0.62808594 20.03867187 -0.62808594 20.03867187 -2.2890625 20.078125 C-3.73441349 20.13443738 -5.17972444 20.191784 -6.625 20.25 C-7.33785156 20.26417969 -8.05070313 20.27835937 -8.78515625 20.29296875 C-14.74662551 20.56643064 -18.59316957 22.42125312 -22.75 26.875 C-26.14895792 32.65322847 -26.32929966 38.25926181 -26.4140625 44.7734375 C-26.43342865 45.6971817 -26.4527948 46.6209259 -26.4727478 47.57266235 C-26.53225705 50.50668264 -26.57881395 53.44074276 -26.625 56.375 C-26.66320617 58.37111032 -26.70225942 60.36720463 -26.7421875 62.36328125 C-26.83952057 67.24210146 -26.91931635 72.12076268 -27 77 C-33.93 77 -40.86 77 -48 77 C-48 52.25 -48 27.5 -48 2 C-41.4 2 -34.8 2 -28 2 C-27.67 5.96 -27.34 9.92 -27 14 C-26.505 13.13375 -26.01 12.2675 -25.5 11.375 C-19.55237403 2.47465192 -10.38826544 -0.9404114 0 0 Z " fill="#F9FAFC" transform="translate(689,388)"/>
<path d="M0 0 C5.0055898 3.57542128 8.12602925 7.21575447 9.33984375 13.34375 C10.38566053 22.62716474 11.01559798 31.84127011 5.625 39.875 C2.28296128 43.7876307 0.14100066 45.61751455 -5.046875 46.1484375 C-15.51221565 46.49374062 -15.51221565 46.49374062 -19.8527832 42.52319336 C-25.27349423 36.65387176 -26.03193565 30.14233795 -25.9375 22.4375 C-25.97327148 21.10235352 -25.97327148 21.10235352 -26.00976562 19.74023438 C-25.99508957 13.04306183 -24.28974347 8.3121038 -20.375 2.875 C-14.69845231 -2.66639179 -7.19721771 -2.39907257 0 0 Z " fill="#4162A9" transform="translate(984.375,405.125)"/>
<path d="M0 0 C0.57968033 13.07501187 0.57968033 13.07501187 -3 19 C-8.28975739 24.15412258 -13.23652129 24.34054392 -20.36328125 24.29296875 C-23.91273984 23.89858446 -25.65974144 22.65229303 -28 20 C-29.61289621 16.77420757 -29.58915133 13.48804367 -29 10 C-25.10736846 4.7334985 -20.70320738 3.45151826 -14.421875 2.40234375 C-12.60429688 2.17224609 -12.60429688 2.17224609 -10.75 1.9375 C-7.18194656 1.4820839 -3.44229549 0 0 0 Z " fill="#385AA5" transform="translate(605,429)"/>
<path d="M0 0 C3.90439407 1.66720477 5.6469187 4.43506992 7.875 8 C9 11 9 11 9 16 C-1.89 16 -12.78 16 -24 16 C-22.80769231 7.65384615 -22.80769231 7.65384615 -19 3 C-13.21729891 -1.29864505 -6.91409959 -0.86020488 0 0 Z " fill="#4464AB" transform="translate(736,404)"/>
<path d="M0 0 C4.99451703 3.88462436 4.99451703 3.88462436 5.53515625 7.83203125 C5.71635961 12.58271069 5.43935892 15.9911127 2.25 19.75 C-1.95937574 22.27562544 -5.9548823 22.57960514 -10.75 21.75 C-14.32236674 19.8229972 -16.44560702 17.66317895 -17.75 13.75 C-18.15109454 9.49839783 -18.01378256 7.2493027 -16 3.4375 C-11.62100774 -1.79296297 -6.41336537 -2.91516608 0 0 Z " fill="#FBFCFD" transform="translate(312.75,415.25)"/>
<path d="M0 0 C4.22759597 1.26086196 6.05206278 2.72168773 8.3125 6.375 C10 10 10 10 11 15 C0.11 15 -10.78 15 -22 15 C-20.93139659 7.5197761 -20.74735242 6.86038462 -16 2 C-11.11305604 -1.25796264 -5.71517609 -0.43638044 0 0 Z " fill="#4061A9" transform="translate(895,404)"/>
</svg>
