<svg version="1.1" id="Layer_1" xmlns="http://www.w3.org/2000/svg" xmlns:xlink="http://www.w3.org/1999/xlink" x="0px" y="0px"
	 width="100%" viewBox="0 0 1282 848" enable-background="new 0 0 1282 848" xml:space="preserve">

<path fill="#FBFCFD" opacity="1.000000" stroke="none" 
	d="
M559.992676,414.165649 
	C559.455200,413.170013 558.300171,412.027679 558.495300,411.206024 
	C559.095093,408.680725 560.211975,406.278229 561.216675,403.464783 
	C567.713745,393.566254 577.311523,390.071625 588.149475,389.216400 
	C598.189026,388.424225 608.086975,388.961060 617.253967,393.866760 
	C622.670532,396.765411 625.925537,401.279694 626.112793,407.378967 
	C626.485046,419.504150 626.357422,431.643890 626.645081,443.772675 
	C626.817200,451.029022 627.384766,458.275970 627.782166,465.667572 
	C621.894653,465.667572 615.284363,465.667572 608.444519,465.667572 
	C607.837097,463.540436 607.258606,461.514709 606.686768,459.512207 
	C603.419922,461.396973 600.151062,463.282898 596.598145,465.397156 
	C588.739563,466.084778 581.057861,467.536682 573.619507,466.734070 
	C565.613586,465.870209 559.407654,460.899658 557.247559,452.587372 
	C554.921143,443.634979 555.731140,435.186768 563.088440,428.487946 
	C563.897644,427.751160 565.023926,427.362732 566.568970,426.572327 
	C577.513855,424.266022 587.913330,422.296356 598.264221,420.097900 
	C604.366150,418.801880 606.329956,416.422943 605.947937,411.623810 
	C605.550964,406.635773 602.192017,403.521759 596.667664,403.020325 
	C586.056458,402.057159 583.048401,403.835815 578.247253,414.165649 
	C572.271606,414.165649 566.132141,414.165649 559.992676,414.165649 
M600.323669,450.980927 
	C607.054321,445.375244 606.008545,437.774750 605.871399,430.446655 
	C601.929138,431.237823 598.214050,431.978943 594.500916,432.729828 
	C590.930969,433.451782 587.254700,433.855286 583.819580,434.988220 
	C578.636536,436.697601 576.261230,441.032166 577.017395,446.312531 
	C577.632812,450.609863 580.936462,453.861725 586.207520,453.784363 
	C590.726196,453.718048 595.224915,452.289825 600.323669,450.980927 
z"/>
<path fill="#FCFDFE" opacity="1.000000" stroke="none" 
	d="
M694.977966,444.292084 
	C691.414673,431.730438 691.292969,419.655121 697.583679,408.184113 
	C706.080078,392.691101 719.082947,387.498871 735.308716,389.367859 
	C751.580322,391.242157 763.120911,403.014618 765.902893,418.879517 
	C766.699524,423.422272 766.847290,428.078827 767.359558,433.375305 
	C749.003784,433.375305 731.298950,433.375305 713.669434,433.375305 
	C712.863586,441.363586 716.397034,448.150635 722.353516,450.819061 
	C729.528015,454.033173 740.670654,452.436768 744.921631,446.549072 
	C747.457642,443.036591 750.147705,442.672150 753.711487,442.798187 
	C757.351440,442.926849 760.999512,442.826630 765.377686,442.826630 
	C762.131897,453.461914 756.220337,461.040009 746.329651,464.903870 
	C733.430786,469.942841 720.888672,468.477814 708.561523,461.564026 
	C704.464722,457.063141 700.706116,452.700104 696.673584,447.804321 
	C696.125000,446.779663 695.850342,446.287781 695.575684,445.795898 
	C695.427002,445.390350 695.278320,444.984772 694.977966,444.292084 
M745.847412,417.803040 
	C745.499512,416.693451 745.213379,415.559906 744.793823,414.478149 
	C741.693665,406.487183 735.424072,403.341400 725.801575,404.917236 
	C718.528809,406.108276 713.786377,411.929504 713.472168,420.481171 
	C723.746765,420.481171 734.012390,420.510834 744.276611,420.401794 
	C744.845581,420.395752 745.402344,419.241028 745.847412,417.803040 
z"/>
<path fill="#FBFCFD" opacity="1.000000" stroke="none" 
	d="
M655.536194,390.894958 
	C657.805969,390.935425 659.615662,391.042877 661.979980,391.183258 
	C661.979980,395.265381 661.979980,399.290070 661.979980,403.314789 
	C666.843262,396.481171 672.566223,391.533844 680.577942,389.666962 
	C682.182739,389.292999 683.854675,389.178162 685.503296,389.027039 
	C689.190979,388.688965 691.026367,389.959930 690.730164,394.103912 
	C690.390076,398.861115 690.651245,403.661346 690.651245,408.853302 
	C682.600159,407.951202 675.107849,407.410248 668.934204,413.593475 
	C664.125366,418.235779 663.201904,423.992310 663.105713,429.838104 
	C662.911804,441.624176 663.047974,453.415649 663.047974,465.525574 
	C656.091553,465.525574 649.549561,465.525574 642.697388,465.525574 
	C642.697388,440.750732 642.697388,416.193512 642.697388,390.962006 
	C646.887878,390.962006 650.981995,390.962006 655.536194,390.894958 
z"/>

<path fill="#FDFDFE" opacity="1.000000" stroke="none" 
	d="
M258.880096,450.669434 
	C267.567902,448.662964 275.958130,446.825165 284.363251,445.058289 
	C285.772583,444.762054 287.246552,444.773041 289.230469,444.593140 
	C286.939056,459.748749 283.690979,474.138885 276.608826,487.791931 
	C273.149323,491.751129 270.318024,496.157013 266.337921,498.889709 
	C257.411591,505.018372 243.753662,501.565063 236.715012,492.147003 
	C226.541382,478.534210 230.030777,464.365173 245.743927,456.250397 
	C249.856033,454.126801 254.297363,452.640747 258.880096,450.669434 
z"/>
<path fill="#FDFDFE" opacity="1.000000" stroke="none" 
	d="
M238.588501,402.894165 
	C255.406754,406.584442 268.580475,416.246277 282.746338,426.504517 
	C273.819763,431.939026 265.564575,436.964813 257.045227,442.186005 
	C249.695526,444.582245 242.740234,447.914093 235.497360,448.747894 
	C220.530838,450.470856 210.186401,439.667023 211.019592,424.538513 
	C211.889160,408.749451 223.377899,399.620789 238.588501,402.894165 
z"/>
<path fill="#FDFDFE" opacity="1.000000" stroke="none" 
	d="
M283.615173,496.642029 
	C287.341675,479.527924 297.044861,466.097412 307.254486,452.105652 
	C316.822174,465.902069 326.304962,479.126007 329.504669,495.457703 
	C333.226715,514.455811 317.717072,527.846863 299.079102,522.084595 
	C297.970459,521.741882 296.873444,521.361694 295.386810,520.970093 
	C285.542358,515.692810 281.656952,507.786987 283.615173,496.642029 
z"/>
<path fill="#FDFDFE" opacity="1.000000" stroke="none" 
	d="
M232.211761,374.393372 
	C233.729218,365.933624 237.020706,358.585266 244.097031,354.138550 
	C256.312134,346.462677 266.684418,348.773132 275.257996,360.769592 
	C285.491394,375.088562 287.158752,392.072693 290.142212,408.905548 
	C281.353790,406.840027 273.040283,405.329071 265.010101,402.886536 
	C254.999634,399.841644 244.966202,396.507111 237.301117,388.177856 
	C235.425430,383.623138 233.863251,379.206177 232.211761,374.393372 
z"/>
<path fill="#FCFDFE" opacity="1.000000" stroke="none" 
	d="
M501.439972,468.265076 
	C485.487946,467.958069 472.035187,462.999054 461.878418,450.719910 
	C454.551270,441.861633 450.719727,431.736633 450.147919,420.212830 
	C449.554474,408.252441 450.610413,396.681641 456.321014,385.506592 
	C462.391174,375.450714 469.721283,367.161041 480.980469,363.560394 
	C494.994080,359.078796 509.006195,358.587494 522.632568,365.035339 
	C532.502380,369.705627 539.583984,377.071747 543.368530,388.214783 
	C543.975342,389.942505 544.337891,391.031586 544.700562,392.120636 
	C544.799438,393.608429 544.898376,395.096222 545.017334,396.886322 
	C537.776428,396.886322 530.680115,396.886322 523.615784,396.886322 
	C518.907349,385.114899 510.667358,378.891205 500.325806,379.234222 
	C487.451385,379.661255 478.637329,386.408752 474.914703,399.259399 
	C471.633026,410.587860 471.672852,421.999664 476.121246,433.050140 
	C481.373596,446.097809 495.318420,452.347443 508.589722,448.057098 
	C516.550781,445.483429 520.461365,439.407928 522.913635,432.008881 
	C523.530212,430.148499 523.874207,428.197754 524.374573,426.162445 
	C531.470215,426.162445 538.428711,426.162445 545.385742,426.162445 
	C545.793335,445.701202 530.430725,468.155182 501.439972,468.265076 
z"/>

<path fill="#FCFDFE" opacity="1.000000" stroke="none" 
	d="
M314.593628,392.627258 
	C312.382446,395.649536 310.296082,398.385986 307.916687,401.506775 
	C298.089539,387.495392 288.531372,373.834198 285.409698,357.279175 
	C283.923920,349.399628 284.827545,340.927429 292.804504,335.150604 
	C299.529236,331.422333 306.165497,328.757324 313.842651,330.640320 
	C328.508545,334.237427 335.241089,343.611023 331.286713,358.190643 
	C328.731567,367.611206 323.543335,376.335419 319.339142,385.279572 
	C318.154205,387.800537 316.277740,389.996460 314.593628,392.627258 
z"/>
<path fill="#FDFDFE" opacity="1.000000" stroke="none" 
	d="
M366.814117,501.534058 
	C352.728607,505.466217 344.011108,501.535400 337.146149,488.526001 
	C331.581879,477.981445 326.333618,458.078918 325.817139,445.180115 
	C328.432953,445.605499 330.981079,446.019897 333.899841,446.435852 
	C345.133820,449.944153 356.261017,452.822784 366.746582,457.228516 
	C371.815552,459.358368 376.655548,463.662994 379.884155,468.202698 
	C386.547729,477.572418 382.132538,492.077942 371.453979,498.938873 
	C370.062683,499.832764 368.526642,500.501343 366.814117,501.534058 
z"/>
<path fill="#FDFDFE" opacity="1.000000" stroke="none" 
	d="
M374.625732,356.996704 
	C380.563782,363.005615 384.685455,369.536682 384.098572,378.565979 
	C383.018311,388.777191 375.995117,393.703674 368.260956,397.805023 
	C357.310120,403.612152 345.261871,405.883148 333.202301,407.997833 
	C331.090790,408.368103 328.960266,408.630035 325.306915,409.167236 
	C328.305359,397.887299 330.682617,387.159821 334.081665,376.766571 
	C336.461151,369.490997 339.677002,362.572876 345.600861,356.914978 
	C352.148041,350.661682 360.110901,350.440186 367.352783,353.193878 
	C369.781158,354.117218 371.983673,355.634613 374.625732,356.996704 
z"/>
<path fill="#FDFDFE" opacity="1.000000" stroke="none" 
	d="
M398.644745,410.986267 
	C400.587646,414.857758 402.220581,418.583313 403.995209,422.655212 
	C403.400360,428.173187 403.283295,433.532379 401.786804,438.473877 
	C399.346191,446.532959 392.006805,451.068420 383.494690,451.176483 
	C373.262573,451.306396 364.364532,447.139771 355.836731,442.338837 
	C348.199463,438.039246 341.067474,432.842224 333.655334,428.003815 
	C334.011749,427.188629 334.074585,426.582306 334.385101,426.401672 
	C345.502411,419.933868 356.347900,412.898071 367.889313,407.297394 
	C374.953552,403.869385 383.141907,402.466888 390.977386,406.039520 
	C393.611847,407.240692 395.892456,409.217834 398.644745,410.986267 
z"/>

</svg>