<svg version="1.1" id="Layer_1" xmlns="http://www.w3.org/2000/svg" xmlns:xlink="http://www.w3.org/1999/xlink" x="0px" y="0px"
	 width="100%" viewBox="0 0 882 848" enable-background="new 0 0 882 848" xml:space="preserve">

<path fill="#FDFDFE" opacity="1.000000" stroke="none" 
	d="
M258.880096,450.669434 
	C267.567902,448.662964 275.958130,446.825165 284.363251,445.058289 
	C285.772583,444.762054 287.246552,444.773041 289.230469,444.593140 
	C286.939056,459.748749 283.690979,474.138885 276.608826,487.791931 
	C273.149323,491.751129 270.318024,496.157013 266.337921,498.889709 
	C257.411591,505.018372 243.753662,501.565063 236.715012,492.147003 
	C226.541382,478.534210 230.030777,464.365173 245.743927,456.250397 
	C249.856033,454.126801 254.297363,452.640747 258.880096,450.669434 
z"/>
<path fill="#FDFDFE" opacity="1.000000" stroke="none" 
	d="
M238.588501,402.894165 
	C255.406754,406.584442 268.580475,416.246277 282.746338,426.504517 
	C273.819763,431.939026 265.564575,436.964813 257.045227,442.186005 
	C249.695526,444.582245 242.740234,447.914093 235.497360,448.747894 
	C220.530838,450.470856 210.186401,439.667023 211.019592,424.538513 
	C211.889160,408.749451 223.377899,399.620789 238.588501,402.894165 
z"/>
<path fill="#FDFDFE" opacity="1.000000" stroke="none" 
	d="
M283.615173,496.642029 
	C287.341675,479.527924 297.044861,466.097412 307.254486,452.105652 
	C316.822174,465.902069 326.304962,479.126007 329.504669,495.457703 
	C333.226715,514.455811 317.717072,527.846863 299.079102,522.084595 
	C297.970459,521.741882 296.873444,521.361694 295.386810,520.970093 
	C285.542358,515.692810 281.656952,507.786987 283.615173,496.642029 
z"/>
<path fill="#FDFDFE" opacity="1.000000" stroke="none" 
	d="
M232.211761,374.393372 
	C233.729218,365.933624 237.020706,358.585266 244.097031,354.138550 
	C256.312134,346.462677 266.684418,348.773132 275.257996,360.769592 
	C285.491394,375.088562 287.158752,392.072693 290.142212,408.905548 
	C281.353790,406.840027 273.040283,405.329071 265.010101,402.886536 
	C254.999634,399.841644 244.966202,396.507111 237.301117,388.177856 
	C235.425430,383.623138 233.863251,379.206177 232.211761,374.393372 
z"/>

<path fill="#FCFDFE" opacity="1.000000" stroke="none" 
	d="
M314.593628,392.627258 
	C312.382446,395.649536 310.296082,398.385986 307.916687,401.506775 
	C298.089539,387.495392 288.531372,373.834198 285.409698,357.279175 
	C283.923920,349.399628 284.827545,340.927429 292.804504,335.150604 
	C299.529236,331.422333 306.165497,328.757324 313.842651,330.640320 
	C328.508545,334.237427 335.241089,343.611023 331.286713,358.190643 
	C328.731567,367.611206 323.543335,376.335419 319.339142,385.279572 
	C318.154205,387.800537 316.277740,389.996460 314.593628,392.627258 
z"/>
<path fill="#FDFDFE" opacity="1.000000" stroke="none" 
	d="
M366.814117,501.534058 
	C352.728607,505.466217 344.011108,501.535400 337.146149,488.526001 
	C331.581879,477.981445 326.333618,458.078918 325.817139,445.180115 
	C328.432953,445.605499 330.981079,446.019897 333.899841,446.435852 
	C345.133820,449.944153 356.261017,452.822784 366.746582,457.228516 
	C371.815552,459.358368 376.655548,463.662994 379.884155,468.202698 
	C386.547729,477.572418 382.132538,492.077942 371.453979,498.938873 
	C370.062683,499.832764 368.526642,500.501343 366.814117,501.534058 
z"/>
<path fill="#FDFDFE" opacity="1.000000" stroke="none" 
	d="
M374.625732,356.996704 
	C380.563782,363.005615 384.685455,369.536682 384.098572,378.565979 
	C383.018311,388.777191 375.995117,393.703674 368.260956,397.805023 
	C357.310120,403.612152 345.261871,405.883148 333.202301,407.997833 
	C331.090790,408.368103 328.960266,408.630035 325.306915,409.167236 
	C328.305359,397.887299 330.682617,387.159821 334.081665,376.766571 
	C336.461151,369.490997 339.677002,362.572876 345.600861,356.914978 
	C352.148041,350.661682 360.110901,350.440186 367.352783,353.193878 
	C369.781158,354.117218 371.983673,355.634613 374.625732,356.996704 
z"/>
<path fill="#FDFDFE" opacity="1.000000" stroke="none" 
	d="
M398.644745,410.986267 
	C400.587646,414.857758 402.220581,418.583313 403.995209,422.655212 
	C403.400360,428.173187 403.283295,433.532379 401.786804,438.473877 
	C399.346191,446.532959 392.006805,451.068420 383.494690,451.176483 
	C373.262573,451.306396 364.364532,447.139771 355.836731,442.338837 
	C348.199463,438.039246 341.067474,432.842224 333.655334,428.003815 
	C334.011749,427.188629 334.074585,426.582306 334.385101,426.401672 
	C345.502411,419.933868 356.347900,412.898071 367.889313,407.297394 
	C374.953552,403.869385 383.141907,402.466888 390.977386,406.039520 
	C393.611847,407.240692 395.892456,409.217834 398.644745,410.986267 
z"/>
<path fill="#FBFCFD" opacity="1.000000" stroke="none" 
	d="
M310.366089,415.161163 
	C317.461975,418.183105 320.306335,422.640045 319.307312,428.627899 
	C318.384583,434.158081 313.944336,438.153961 308.379028,438.462585 
	C301.882935,438.822845 296.340515,433.911438 295.974579,427.470367 
	C295.584717,420.609222 300.237610,415.325775 306.980865,415.006531 
	C307.972321,414.959564 308.970245,415.049774 310.366089,415.161163 
z"/>

</svg>